<svg width="42" height="42" viewBox="0 0 42 42" fill="none" xmlns="http://www.w3.org/2000/svg">
<path d="M32.2121 30.5851L41.0803 39.4533C41.5296 39.9026 41.5296 40.631 41.0803 41.0803C40.631 41.5296 39.9026 41.5296 39.4533 41.0803L30.5851 32.2121C27.3399 35.077 23.0768 36.8154 18.4077 36.8154C8.2414 36.8154 0 28.574 0 18.4077C0 8.2414 8.2414 0 18.4077 0C28.574 0 36.8154 8.2414 36.8154 18.4077C36.8154 23.0768 35.077 27.3399 32.2121 30.5851ZM18.4077 34.5144C27.3032 34.5144 34.5144 27.3032 34.5144 18.4077C34.5144 9.51218 27.3032 2.30096 18.4077 2.30096C9.51218 2.30096 2.30096 9.51218 2.30096 18.4077C2.30096 27.3032 9.51218 34.5144 18.4077 34.5144Z" fill="black"/>
</svg>
