<svg width="19" height="22" viewBox="0 0 19 22" fill="none" xmlns="http://www.w3.org/2000/svg">
<path d="M6.03076 7.11467H7.37947V17.9043H6.03076V7.11467Z" fill="black"/>
<path d="M8.72852 7.11467H10.0772V17.9043H8.72852V7.11467Z" fill="black"/>
<path d="M11.4258 7.11467H12.7745V17.9043H11.4258V7.11467Z" fill="black"/>
<path d="M0.63623 3.0683H18.1694V4.417H0.63623V3.0683Z" fill="black"/>
<path d="M12.7743 3.06847H11.4256V2.39412C11.4256 1.98951 11.1558 1.71977 10.7512 1.71977H8.05382C7.64921 1.71977 7.37947 1.98951 7.37947 2.39412V3.06847H6.03076V2.39412C6.03076 1.24772 6.90742 0.371063 8.05382 0.371063H10.7512C11.8976 0.371063 12.7743 1.24772 12.7743 2.39412V3.06847Z" fill="black"/>
<path d="M13.4489 21.9503H5.35663C4.27766 21.9503 3.33357 21.0736 3.1987 19.9946L1.98486 3.81018L3.33357 3.67531L4.5474 19.8598C4.5474 20.2644 4.95202 20.6016 5.35663 20.6016H13.4489C13.8535 20.6016 14.1906 20.2644 14.2581 19.8598L15.4719 3.67531L16.8206 3.81018L15.6068 19.9946C15.4719 21.0736 14.5278 21.9503 13.4489 21.9503Z" fill="black"/>
</svg>
