<svg width="36" height="36" viewBox="0 0 36 36" fill="none" xmlns="http://www.w3.org/2000/svg">
<path d="M-5.36442e-07 18.3396C-5.36442e-07 20.0377 1.35849 21.3962 3.0566 21.3962H15.283V32.9434C15.283 34.6415 16.6415 36 18.3396 36C20.0377 36 21.3962 34.6415 21.3962 32.9434V21.3962H32.9434C34.6415 21.3962 36 20.0377 36 18.3396C36 16.6415 34.6415 15.283 32.9434 15.283H21.3962V3.0566C21.3962 1.35849 20.0377 0 18.3396 0C16.6415 0 15.283 1.35849 15.283 3.0566V15.283H3.0566C1.35849 15.283 -5.36442e-07 16.6415 -5.36442e-07 18.3396Z" fill="black"/>
</svg>
