<svg width="29" height="29" viewBox="0 0 29 29" fill="none" xmlns="http://www.w3.org/2000/svg">
<path d="M26.8625 1.46081C25.9073 0.545531 24.8537 0.0817566 23.7288 0.0817566C21.9702 0.0817566 20.6871 1.21796 20.336 1.56601C19.842 2.05521 2.98958 18.9137 2.98958 18.9137C2.87914 19.0247 2.7994 19.1625 2.75816 19.3135C2.37811 20.718 0.474357 26.9496 0.455453 27.0123C0.357728 27.3314 0.444933 27.679 0.680327 27.9144C0.846377 28.08 1.07131 28.173 1.30583 28.173C1.39656 28.173 1.48815 28.1594 1.57758 28.13C1.64201 28.109 8.07437 26.0299 9.13296 25.7139C9.27263 25.6718 9.39993 25.5962 9.5038 25.4938C10.1727 24.8328 25.8907 9.28975 26.9339 8.21228C28.0132 7.10019 28.5493 5.94206 28.5287 4.77079C28.5072 3.61442 27.9465 2.50101 26.8625 1.46081ZM20.0568 4.3697C20.5035 4.47797 21.5569 4.83167 22.6326 5.91705C23.7197 7.0138 24.0138 8.26749 24.0686 8.55285C20.6214 11.9821 12.6864 19.8329 9.55832 22.9272C9.26945 22.2544 8.80261 21.4439 8.05168 20.6873C7.13468 19.7632 6.20141 19.2412 5.48163 18.9475C8.57727 15.8514 16.6618 7.76341 20.0568 4.3697ZM4.2911 20.4273C4.77285 20.5553 5.77358 20.9266 6.79364 21.955C7.57917 22.7471 7.95001 23.6207 8.11659 24.1533C6.89797 24.5452 4.22973 25.4661 2.53419 26.0128C3.03654 24.3597 3.88516 21.7853 4.2911 20.4273ZM25.6615 6.95942C25.6063 7.01581 25.5509 7.07207 25.4954 7.12819C25.2183 6.41452 24.7322 5.49752 23.8905 4.64888C23.0305 3.78182 22.1582 3.27026 21.4591 2.9678C21.5187 2.90862 21.5647 2.86213 21.5827 2.84463C21.683 2.74553 22.5935 1.87543 23.7284 1.87543C24.3815 1.87543 25.0228 2.17351 25.6357 2.7609C26.362 3.45744 26.7363 4.14477 26.7486 4.80449C26.7605 5.4778 26.3949 6.20283 25.6615 6.95942Z" fill="black"/>
</svg>
