<svg width="501" height="326" viewBox="0 0 501 326" fill="none" xmlns="http://www.w3.org/2000/svg">
<path d="M410.144 162.612C410.144 251.048 319.156 323.418 205.976 323.418C92.7948 323.418 1.8068 251.048 1.8068 162.612C1.8068 74.1766 92.7948 1.8068 205.976 1.8068C319.156 1.8068 410.144 74.1766 410.144 162.612Z" fill="#F5F5F5" stroke="#3F20FF" stroke-width="3.61361"/>
<path d="M498 156.791L443.917 55.898H245.612V254.082H443.917L498 156.791Z" fill="white" stroke="#3F20FF" stroke-width="3.61361"/>
<path d="M286.884 91.06C295.123 91.06 299.243 93.6799 299.243 98.9196C299.243 101.377 298.683 103.473 297.563 105.207C296.442 106.906 294.437 108.243 291.546 109.218C288.655 110.158 284.644 110.628 279.513 110.628H255.121C255.41 103.617 255.554 97.0586 255.554 90.9516C255.554 84.8446 255.41 78.2859 255.121 71.2755H267.859V71.3297H279.404C283.885 71.3297 287.408 71.7092 289.974 72.468C292.576 73.1907 294.401 74.2567 295.449 75.6661C296.533 77.0754 297.075 78.8641 297.075 81.0323C297.075 83.2366 296.298 85.206 294.744 86.9405C293.226 88.6389 290.606 90.0121 286.884 91.06ZM267.859 81.1949V86.2358H278.266C280.506 86.2358 282.06 86.0371 282.927 85.6396C283.831 85.2421 284.283 84.5194 284.283 83.4714C284.283 82.6403 283.813 82.0621 282.873 81.7369C281.97 81.3755 280.434 81.1949 278.266 81.1949H267.859ZM278.266 100.708C280.145 100.708 281.572 100.636 282.548 100.492C283.56 100.311 284.283 100.022 284.716 99.6243C285.15 99.1906 285.367 98.6124 285.367 97.8897C285.367 96.9502 284.843 96.2817 283.795 95.8842C282.783 95.4505 280.94 95.2337 278.266 95.2337H267.859V100.708H278.266ZM316.293 88.9461C316.257 91.1142 316.239 94.4387 316.239 98.9196C316.239 104.304 316.275 108.207 316.347 110.628H303.555L303.609 104.503C303.682 97.7813 303.718 92.5958 303.718 88.9461C303.718 85.477 303.682 80.5625 303.609 74.2025L303.555 68.3485H316.347C316.275 73.4798 316.239 77.6716 316.239 80.9238C316.239 84.5375 316.257 87.2115 316.293 88.9461ZM354.041 81.0323C353.788 85.5854 353.662 90.4999 353.662 95.7758C353.662 101.088 353.788 106.038 354.041 110.628C351.728 110.519 349.903 110.465 348.566 110.465C347.302 110.465 345.477 110.519 343.092 110.628L341.52 102.66C340.689 105.551 339.388 107.701 337.617 109.11C335.847 110.483 333.787 111.17 331.438 111.17C329.27 111.17 327.391 110.7 325.801 109.76C324.211 108.785 323 107.484 322.169 105.858C321.374 104.232 320.977 102.407 320.977 100.383V92.5777C320.977 87.7716 320.886 83.9231 320.706 81.0323H332.901C332.685 86.3443 332.576 91.6021 332.576 96.8056C332.576 98.3956 332.956 99.6604 333.715 100.6C334.51 101.539 335.503 102.009 336.696 102.009C337.816 102.009 338.792 101.521 339.623 100.546C340.49 99.5339 341.014 98.1607 341.195 96.4262V95.1795C341.267 92.3609 341.303 90.4096 341.303 89.3255C341.303 86.8321 341.231 84.0677 341.086 81.0323H354.041ZM387.068 97.0767H369.398C369.687 98.6667 370.391 99.9675 371.512 100.979C372.668 101.955 374.294 102.443 376.39 102.443C377.908 102.443 379.335 102.154 380.672 101.576C382.009 100.961 383.075 100.112 383.87 99.028C386.291 100.221 389.507 101.503 393.519 102.877C392.398 105.406 390.357 107.43 387.394 108.947C384.466 110.429 380.636 111.17 375.902 111.17C369.759 111.17 365.206 109.76 362.243 106.942C359.316 104.087 357.852 100.347 357.852 95.7216C357.852 91.2046 359.316 87.5367 362.243 84.7181C365.17 81.8995 369.723 80.4902 375.902 80.4902C379.588 80.4902 382.786 81.1045 385.496 82.3332C388.207 83.5618 390.284 85.2782 391.73 87.4825C393.175 89.6507 393.898 92.1441 393.898 94.9627C393.898 95.9022 393.862 96.6069 393.79 97.0767H387.068ZM376.661 88.675C374.854 88.675 373.373 89.0183 372.216 89.7049C371.06 90.3915 370.247 91.331 369.777 92.5235H382.569C382.136 91.3672 381.431 90.4457 380.455 89.7591C379.48 89.0364 378.215 88.675 376.661 88.675ZM278.971 176.17C270.804 176.17 264.787 174.435 260.921 170.966C257.054 167.497 255.121 162.546 255.121 156.114C255.121 149.646 257.054 144.533 260.921 140.774C264.787 137.016 270.804 135.137 278.971 135.137C290.39 135.137 298.032 139.058 301.899 146.9C298.647 148.02 294.834 149.7 290.462 151.941C289.414 149.917 287.752 148.417 285.475 147.442C283.235 146.466 280.94 145.978 278.591 145.978C275.122 145.978 272.538 146.9 270.84 148.742C269.142 150.549 268.292 152.79 268.292 155.464C268.292 158.355 269.196 160.722 271.003 162.565C272.845 164.371 275.646 165.275 279.404 165.275C282.403 165.275 284.788 164.787 286.559 163.811C288.33 162.799 289.631 161.209 290.462 159.041C293.425 160.631 297.219 162.42 301.845 164.407C300.038 168.78 297.02 171.833 292.793 173.568C288.565 175.302 283.957 176.17 278.971 176.17ZM313.518 142.834C311.241 142.834 309.543 142.274 308.423 141.154C307.339 140.034 306.797 138.57 306.797 136.763C306.797 134.993 307.339 133.529 308.423 132.373C309.543 131.216 311.241 130.638 313.518 130.638C315.686 130.638 317.348 131.235 318.505 132.427C319.661 133.583 320.239 135.029 320.239 136.763C320.239 138.57 319.679 140.034 318.559 141.154C317.439 142.274 315.758 142.834 313.518 142.834ZM307.23 175.628C307.483 169.81 307.61 165.004 307.61 161.209C307.61 156.692 307.465 151.633 307.176 146.032H320.185C319.896 151.417 319.751 156.476 319.751 161.209C319.751 165.184 319.878 169.99 320.131 175.628H307.23ZM337.674 154.054C339.192 148.598 342.968 145.87 349.003 145.87C350.051 145.87 351.063 145.942 352.038 146.086L350.304 158.228C347.702 157.253 345.57 156.765 343.908 156.765C341.848 156.765 340.33 157.379 339.355 158.608C338.379 159.836 337.891 161.48 337.891 163.54V163.486L337.837 167.063C337.837 169.629 337.909 172.484 338.054 175.628H325.099C325.388 170.424 325.533 165.51 325.533 160.884C325.533 156.259 325.388 151.308 325.099 146.032C327.484 146.141 329.309 146.195 330.574 146.195C331.911 146.195 333.736 146.141 336.048 146.032L337.674 154.054ZM365.745 160.83C365.818 162.673 366.396 164.154 367.48 165.275C368.6 166.395 370.244 166.955 372.412 166.955C373.605 166.955 374.671 166.738 375.61 166.305C376.55 165.835 377.417 165.148 378.212 164.245C381.284 165.437 384.879 166.467 388.999 167.334C387.806 170.117 385.783 172.285 382.928 173.839C380.109 175.393 376.442 176.17 371.925 176.17C365.89 176.17 361.427 174.76 358.536 171.942C355.645 169.123 354.2 165.419 354.2 160.83C354.2 156.241 355.645 152.537 358.536 149.718C361.427 146.9 365.89 145.49 371.925 145.49C376.442 145.49 380.109 146.267 382.928 147.821C385.783 149.375 387.806 151.543 388.999 154.325C385.783 155.012 382.187 156.042 378.212 157.415C377.417 156.512 376.55 155.843 375.61 155.41C374.671 154.94 373.605 154.705 372.412 154.705C370.244 154.705 368.6 155.265 367.48 156.385C366.396 157.505 365.818 158.987 365.745 160.83ZM405.804 153.946C405.768 156.114 405.75 159.439 405.75 163.92C405.75 169.304 405.786 173.207 405.858 175.628H393.066L393.12 169.503C393.192 162.781 393.228 157.596 393.228 153.946C393.228 150.477 393.192 145.562 393.12 139.203L393.066 133.349H405.858C405.786 138.48 405.75 142.672 405.75 145.924C405.75 149.537 405.768 152.212 405.804 153.946ZM438.89 162.077H421.22C421.509 163.667 422.214 164.968 423.334 165.979C424.49 166.955 426.116 167.443 428.212 167.443C429.73 167.443 431.157 167.154 432.494 166.576C433.831 165.961 434.897 165.112 435.692 164.028C438.113 165.221 441.33 166.503 445.341 167.877C444.22 170.406 442.179 172.43 439.216 173.947C436.289 175.429 432.458 176.17 427.724 176.17C421.581 176.17 417.028 174.76 414.065 171.942C411.138 169.087 409.674 165.347 409.674 160.722C409.674 156.205 411.138 152.537 414.065 149.718C416.992 146.9 421.545 145.49 427.724 145.49C431.41 145.49 434.608 146.105 437.318 147.333C440.029 148.562 442.106 150.278 443.552 152.483C444.997 154.651 445.72 157.144 445.72 159.963C445.72 160.902 445.684 161.607 445.612 162.077H438.89ZM428.483 153.675C426.676 153.675 425.195 154.018 424.038 154.705C422.882 155.391 422.069 156.331 421.599 157.524H434.391C433.958 156.367 433.253 155.446 432.277 154.759C431.302 154.036 430.037 153.675 428.483 153.675ZM255.121 235.966C256.349 234.123 257.361 232.407 258.156 230.817C258.987 229.227 259.782 227.384 260.541 225.288C263.107 226.77 266.088 227.926 269.485 228.757C272.882 229.588 276.044 230.004 278.971 230.004C281.97 230.004 284.084 229.751 285.312 229.245C286.541 228.703 287.155 228.125 287.155 227.51C287.155 225.306 283.795 224.204 277.073 224.204C269.702 224.204 264.354 223.445 261.029 221.927C257.704 220.373 256.042 217.88 256.042 214.447C256.042 209.569 258.066 205.973 262.113 203.661C266.16 201.348 271.418 200.191 277.886 200.191C281.645 200.191 285.493 200.679 289.432 201.655C293.407 202.594 296.984 203.895 300.164 205.558C299.116 207.943 298.014 210.852 296.858 214.285C296.641 215.007 296.46 215.549 296.316 215.911C294.473 214.429 291.69 213.2 287.968 212.225C284.246 211.213 280.958 210.707 278.103 210.707C274.67 210.707 272.358 210.942 271.165 211.412C269.973 211.845 269.376 212.496 269.376 213.363C269.376 214.23 270.189 214.935 271.816 215.477C273.478 215.983 275.863 216.236 278.971 216.236C286.631 216.236 292.196 217.121 295.665 218.892C299.134 220.626 300.869 223.3 300.869 226.914C300.869 231.973 299.026 235.623 295.34 237.863C291.654 240.068 286.071 241.17 278.591 241.17C274.58 241.17 270.497 240.736 266.341 239.869C262.185 238.965 258.445 237.665 255.121 235.966ZM326.336 240.628C326.552 235.316 326.661 230.419 326.661 225.938C326.661 224.348 326.263 223.084 325.468 222.144C324.709 221.205 323.734 220.735 322.541 220.735C321.277 220.735 320.192 221.349 319.289 222.578C318.422 223.806 317.988 225.487 317.988 227.619L317.934 227.51C317.934 233.4 318.006 237.773 318.151 240.628H305.196C305.485 235.424 305.63 228.378 305.63 219.488C305.63 210.599 305.485 203.552 305.196 198.349H318.097L318.151 215.043L318.097 217.916C318.964 215.387 320.247 213.526 321.945 212.333C323.68 211.105 325.631 210.49 327.799 210.49C329.967 210.49 331.846 210.978 333.436 211.954C335.026 212.893 336.219 214.176 337.014 215.802C337.845 217.428 338.26 219.253 338.26 221.277V229.082C338.26 233.888 338.351 237.737 338.532 240.628H326.336ZM360.338 241.17C354.159 241.17 349.606 239.76 346.679 236.942C343.788 234.087 342.343 230.347 342.343 225.722C342.343 221.205 343.788 217.537 346.679 214.718C349.606 211.9 354.159 210.49 360.338 210.49C364.494 210.49 367.963 211.177 370.746 212.55C373.564 213.887 375.642 215.712 376.979 218.025C378.316 220.301 378.985 222.867 378.985 225.722C378.985 230.383 377.431 234.123 374.323 236.942C371.252 239.76 366.59 241.17 360.338 241.17ZM360.555 231.955C362.904 231.955 364.657 231.395 365.813 230.275C366.969 229.154 367.548 227.655 367.548 225.776C367.548 224.005 366.969 222.56 365.813 221.439C364.657 220.283 362.904 219.705 360.555 219.705C358.206 219.705 356.49 220.265 355.406 221.385C354.322 222.505 353.78 223.969 353.78 225.776C353.78 227.655 354.322 229.154 355.406 230.275C356.49 231.395 358.206 231.955 360.555 231.955ZM395.372 219.054C396.89 213.598 400.666 210.87 406.701 210.87C407.749 210.87 408.761 210.942 409.736 211.086L408.002 223.228C405.4 222.253 403.268 221.765 401.606 221.765C399.546 221.765 398.028 222.379 397.052 223.608C396.077 224.836 395.589 226.48 395.589 228.54V228.486L395.535 232.063C395.535 234.629 395.607 237.484 395.752 240.628H382.797C383.086 235.424 383.23 230.51 383.23 225.884C383.23 221.259 383.086 216.308 382.797 211.032C385.182 211.141 387.007 211.195 388.271 211.195C389.608 211.195 391.433 211.141 393.746 211.032L395.372 219.054ZM438.635 220.735C435.31 220.518 432.275 220.355 429.529 220.247L429.475 225.993C429.475 227.944 429.89 229.48 430.721 230.6C431.588 231.684 433.106 232.226 435.274 232.226C436.105 232.226 436.9 232.154 437.659 232.009C437.515 233.346 437.443 234.701 437.443 236.075C437.443 236.725 437.479 238.207 437.551 240.519C435.961 240.808 434.624 240.989 433.54 241.061C432.456 241.134 431.046 241.17 429.312 241.17C425.084 241.17 422.085 240.158 420.314 238.134C418.579 236.075 417.712 233.22 417.712 229.57L417.766 220.41C416.068 220.482 414.297 220.59 412.454 220.735V211.141C414.333 211.141 415.923 210.544 417.224 209.352C418.525 208.159 419.302 206.732 419.555 205.07H434.299C432.456 207.599 430.414 209.623 428.174 211.141H438.635V220.735Z" fill="#3F20FF"/>
</svg>
